<svg width="14" height="14" viewBox="0 0 14 14" fill="none" xmlns="http://www.w3.org/2000/svg">
<path d="M9.91644 1.16665H11.4739C11.8041 1.16082 12.1249 1.2764 12.3754 1.49146C12.626 1.70653 12.7888 2.0061 12.8331 2.33332V6.41665C12.7888 6.74387 12.626 7.04344 12.3754 7.25851C12.1249 7.47357 11.8041 7.58916 11.4739 7.58332H9.91644M5.83311 8.74999V11.0833C5.83311 11.5474 6.01748 11.9926 6.34567 12.3208C6.67386 12.6489 7.11898 12.8333 7.58311 12.8333L9.91644 7.58332V1.16665H3.33644C3.05508 1.16347 2.78205 1.26208 2.56766 1.44432C2.35327 1.62655 2.21196 1.88013 2.16977 2.15832L1.36477 7.40832C1.33939 7.57553 1.35067 7.74626 1.39783 7.90867C1.44498 8.07109 1.52688 8.22132 1.63786 8.34894C1.74883 8.47656 1.88623 8.57853 2.04052 8.64778C2.19482 8.71703 2.36233 8.7519 2.53144 8.74999H5.83311Z" stroke="#00247D" stroke-opacity="0.3" stroke-linecap="round" stroke-linejoin="round"/>
</svg>
