<svg width="14" height="14" viewBox="0 0 14 14" fill="none" xmlns="http://www.w3.org/2000/svg">
<path d="M4.08317 12.8334H2.33317C2.02375 12.8334 1.72701 12.7104 1.50821 12.4916C1.28942 12.2729 1.1665 11.9761 1.1665 11.6667V7.58335C1.1665 7.27393 1.28942 6.97719 1.50821 6.7584C1.72701 6.5396 2.02375 6.41669 2.33317 6.41669H4.08317M8.1665 5.25002V2.91669C8.1665 2.45256 7.98213 2.00744 7.65394 1.67925C7.32575 1.35106 6.88063 1.16669 6.4165 1.16669L4.08317 6.41669V12.8334H10.6632C10.9445 12.8365 11.2176 12.7379 11.4319 12.5557C11.6463 12.3735 11.7876 12.1199 11.8298 11.8417L12.6348 6.59169C12.6602 6.42448 12.6489 6.25375 12.6018 6.09133C12.5546 5.92892 12.4727 5.77869 12.3618 5.65107C12.2508 5.52345 12.1134 5.42148 11.9591 5.35223C11.8048 5.28298 11.6373 5.24811 11.4682 5.25002H8.1665Z" stroke="#00247D" stroke-opacity="0.3" stroke-linecap="round" stroke-linejoin="round"/>
</svg>
